<?xml version="1.0" encoding="utf-8"?>
<!-- Generator: Adobe Illustrator 24.1.1, SVG Export Plug-In . SVG Version: 6.00 Build 0)  -->
<svg version="1.1" id="Layer_1" xmlns="http://www.w3.org/2000/svg" xmlns:xlink="http://www.w3.org/1999/xlink" x="0px" y="0px"
	 viewBox="0 0 512 512" style="enable-background:new 0 0 512 512;" xml:space="preserve">
<g>
	<path d="M170.95,511.99c-5.76,0-11.2-2.25-15.28-6.31c-4.03-4.04-6.33-9.63-6.33-15.31V385.37L15.51,302.74
		C0.3,293.5-4.56,273.56,4.7,258.32c3.18-5.23,7.74-9.43,13.18-12.16L496.49,1.15l0.85-0.34l0.47-0.18l2.56-0.57l0.98-0.04
		l3.09,0.47l0.59,0.17l2.91,1.63l0.66,0.55l0.77,0.88l1.32,1.97l0.47,0.98l0.83,3.48v0.68l-0.28,2.38l-115.78,473.9
		c-2.56,10.25-9.94,18.69-19.75,22.56c-3.89,1.56-8.03,2.35-12.29,2.35c-6.21,0-12.25-1.71-17.52-4.94L246.5,445.4l-60.27,60.25
		C182.15,509.74,176.74,511.99,170.95,511.99z M357.59,488.89c1.88,1.15,4.05,1.77,6.29,1.77l4.44-0.85
		c3.46-1.33,6.01-4.29,6.89-7.83L481.22,48.1L176.65,377.16L357.59,488.89z M170.67,490.39l57.18-56.54l-57.18-35.28V490.39z
		 M158.13,365.74L452.65,47.56L27.5,265.22c-1.94,0.96-3.5,2.41-4.58,4.2c-1.52,2.52-1.99,5.46-1.28,8.34
		c0.7,2.85,2.47,5.29,4.99,6.8l0.06,0.04L158.13,365.74z"/>
</g>
</svg>
